<svg height="20" width="20" viewBox="7.5 7.5 21.5 21.5" version="1.1" xmlns="http://www.w3.org/2000/svg" xmlns:xlink="http://www.w3.org/1999/xlink">
    <defs>
        <style>
          #frogspark-logo .frog {
            fill: #ffffff;
          }
        </style>
    </defs>
    <g id="frogspark-logo" >
      <path class="frog" d="M22.5809578,17.0419027 C22.6368723,17.6836867 22.5195734,18.3079291 22.2716046,18.8910392 C21.5386382,20.6119398 20.7594815,22.313484 19.888552,23.9702667 C19.6442299,24.4360289 19.3385233,24.8654979 18.8255684,25.0838618 C18.0154156,25.4292517 17.1274687,25.1685458 16.5780477,24.4009455 C16.054153,23.6702433 15.7223125,22.8367104 15.3424584,22.0303974 C14.9079053,21.1055267 14.4563348,20.1867049 14.0631098,19.2436877 C13.2031202,17.1822363 13.4279938,15.2871285 15.0434372,13.6497022 C15.5630776,13.1222416 16.0407821,12.5457853 16.6582729,12.12297 C17.5109694,11.5386501 18.4627318,11.4340048 19.3105661,12.0025977 C20.5321768,12.8222182 21.5550479,13.8765344 22.2418241,15.2006298 C22.5378064,15.7710373 22.6344412,16.3970943 22.5809578,17.0419027"></path>
      <path class="frog" d="M14.705519,24.5642647 C14.6696608,24.9423185 14.7255753,25.3657386 14.3019621,25.5345018 C13.9008362,25.6960064 13.5702112,25.4401396 13.3216346,25.1631018 C11.8988532,23.5770908 10.7763084,21.8005407 10.0074837,19.8140952 C9.88410713,19.4953202 9.83123144,19.1444864 9.8938314,18.7888134 C10.0682604,17.7949858 11.1543392,17.364307 11.94869,17.9843151 C12.0848297,18.090775 12.2161073,18.2147766 12.3151733,18.3551102 C13.6370655,20.2266274 14.2417932,22.3685286 14.705519,24.5642647"></path>
      <path class="frog" d="M26.3241919,19.0652463 C26.2877259,19.4366463 26.2184405,19.8437346 26.0470503,20.2242078 C25.2922043,21.8991371 24.3313254,23.4500648 23.1565127,24.8624735 C22.8313576,25.2544396 22.434486,25.7927881 21.8595389,25.5048624 C21.2961393,25.2217758 21.4784693,24.5793869 21.5757119,24.0821706 C21.9057292,22.3884899 22.5080258,20.7831225 23.2835359,19.2430828 C23.4986852,18.8154284 23.7667103,18.414389 24.1246848,18.0847262 C24.5258107,17.7187701 24.9664414,17.5717828 25.5024915,17.8022444 C26.0494814,18.0369402 26.2992734,18.4500773 26.3241919,19.0652463"></path>
      <path class="frog" d="M13.3976055,12.3994029 C13.1362659,13.3478641 12.9843242,14.4215367 12.8038176,15.49158 C12.6500526,16.4049578 11.2941255,16.7303864 10.6401687,16.0129917 C10.0311866,15.3458025 9.36021238,14.7681363 8.65945757,14.2116412 C8.57497802,14.1444989 8.50022274,14.0604198 8.43640725,13.9727113 C8.17506764,13.6146188 7.84444265,13.1682129 8.24678409,12.8173791 C8.63150031,12.4804576 8.93538357,12.9734397 9.22893481,13.2045061 C9.5777928,13.4791243 9.93090516,14.1215132 10.3089359,13.8741149 C10.7398424,13.5910282 10.1363302,13.1004657 10.0652216,12.6806748 C10.0184235,12.4036371 9.88896926,12.1405117 9.84095571,11.8640788 C9.78990332,11.56587 9.86952074,11.2852029 10.1885982,11.1672501 C10.5216542,11.0438534 10.7860327,11.1587817 10.9689704,11.4630394 C11.2436809,11.9197283 11.3220828,12.4429547 11.4843564,12.9377514 C11.5469564,13.13071 11.5378399,13.4392019 11.818628,13.4156113 C12.0562647,13.3962549 12.1115715,13.1155879 12.157154,12.9069022 C12.2264394,12.5875224 12.2464956,12.2572547 12.3248975,11.9415042 C12.3947907,11.6608371 12.396614,11.2676612 12.8092875,11.2694759 C13.2292541,11.2712905 13.2979318,11.6372465 13.3611395,11.963885 C13.3811958,12.06974 13.3799802,12.1804341 13.3976055,12.3994029"></path>
      <path class="frog" d="M22.7638955,12.2723768 C22.8313576,12.0001781 22.8611382,11.8054048 22.9273847,11.6245439 C23.0063944,11.4085996 23.1486117,11.2416511 23.4111669,11.2597977 C23.6524502,11.2761296 23.7430074,11.4612247 23.7861588,11.655998 C23.8803626,12.080628 23.9399237,12.5125165 24.040813,12.9353318 C24.0894343,13.1373638 24.1392712,13.4168211 24.4006108,13.4168211 C24.6285232,13.4168211 24.6418941,13.1530908 24.6990241,12.9728348 C24.8485347,12.4967895 24.933622,12.0001781 25.1724743,11.5513527 C25.3469033,11.2241094 25.5900099,11.0317557 25.9680407,11.1569671 C26.3588346,11.2864127 26.4275122,11.6172853 26.3302695,11.9566263 C26.1868366,12.456867 25.9917436,12.9425905 25.8209612,13.4361774 C25.7662622,13.5928429 25.6282992,13.7803575 25.8197456,13.9055689 C25.9789805,14.0090044 26.1588794,13.9134325 26.2980579,13.7918504 C26.6262518,13.5045295 26.9465448,13.2087403 27.2796009,12.9268634 C27.4661852,12.7689882 27.690451,12.6153472 27.9305188,12.780481 C28.193074,12.960737 28.1177109,13.2498725 28.0399168,13.496666 C27.9888644,13.6581706 27.8958761,13.8263289 27.7743228,13.9418621 C26.9890884,14.6937354 26.1473318,15.3820956 25.3687829,16.1466715 C24.8084221,16.6983275 23.561893,16.334791 23.4154212,15.5877568 C23.194802,14.462064 23.0598778,13.3176198 22.7638955,12.2723768"></path>
    </g>
</svg>
