<?xml version="1.0" encoding="UTF-8"?>
<svg width="398px" height="410px" viewBox="0 0 398 410" version="1.1" xmlns="http://www.w3.org/2000/svg" xmlns:xlink="http://www.w3.org/1999/xlink">
    <!-- Generator: Sketch 54.1 (76490) - https://sketchapp.com -->
    <title>Fill 1</title>
    <desc>Created with Sketch.</desc>
    <g id="Symbols" stroke="none" stroke-width="1" fill="none" fill-rule="evenodd">
        <g id="Icon/Legal" fill="#071669">
            <path d="M397.637,238.406 C397.633,238.27 397.625,238.137 397.614,238 C397.61,237.937 397.61,237.871 397.602,237.805 C397.586,237.691 397.567,237.578 397.547,237.465 C397.536,237.379 397.524,237.293 397.504,237.211 C397.485,237.129 397.461,237.043 397.442,236.961 C397.411,236.848 397.383,236.734 397.348,236.625 C397.329,236.566 397.305,236.508 397.282,236.449 C397.235,236.32 397.188,236.191 397.133,236.066 C397.125,236.051 397.122,236.035 397.114,236.02 L351.04,133.836 L384.782,133.836 C390.649,133.836 395.422,129.062 395.422,123.195 L395.422,109.07 C395.422,103.203 390.649,98.43 384.782,98.43 L330.481,98.43 C320.18,98.43 310.614,94.281 303.547,86.75 C291.442,73.848 273.926,66.449 255.497,66.449 L218.051,66.449 L218.051,53.285 C224.7,47.758 228.942,39.426 228.942,30.121 C228.942,13.512 215.426,0 198.821,0 C182.211,0 168.696,13.512 168.696,30.121 C168.696,39.426 172.938,47.754 179.586,53.285 L179.586,66.449 L142.141,66.449 C123.711,66.449 106.2,73.848 94.09,86.75 C87.024,94.281 77.461,98.43 67.157,98.43 L12.856,98.43 C6.989,98.43 2.215,103.203 2.215,109.07 L2.215,123.195 C2.215,129.062 6.989,133.836 12.856,133.836 L46.477,133.836 L0.52,236.027 C0.516,236.043 0.508,236.059 0.504,236.07 C0.45,236.191 0.403,236.316 0.36,236.441 C0.336,236.508 0.309,236.57 0.29,236.633 C0.254,236.738 0.227,236.848 0.2,236.957 C0.176,237.043 0.153,237.129 0.133,237.215 C0.118,237.297 0.106,237.379 0.09,237.457 C0.071,237.574 0.051,237.691 0.04,237.809 C0.032,237.871 0.028,237.934 0.024,237.996 C0.012,238.133 0.004,238.27 0.004,238.406 C0.004,238.422 2.84217094e-14,238.437 2.84217094e-14,238.453 L2.84217094e-14,244.266 C2.84217094e-14,273.812 24.04,297.848 53.582,297.848 L58.168,297.848 C87.715,297.848 111.75,273.812 111.75,244.266 L111.75,238.453 C111.75,238.437 111.75,238.422 111.75,238.402 C111.747,238.27 111.739,238.137 111.727,238.008 C111.723,237.937 111.723,237.871 111.715,237.805 C111.704,237.691 111.684,237.582 111.665,237.469 C111.649,237.383 111.637,237.293 111.618,237.207 C111.598,237.125 111.575,237.047 111.555,236.965 C111.524,236.848 111.497,236.734 111.461,236.625 C111.442,236.566 111.415,236.504 111.395,236.445 C111.348,236.316 111.301,236.191 111.247,236.066 C111.239,236.051 111.235,236.035 111.227,236.02 L65.153,133.836 L69.387,133.836 C87.817,133.836 105.329,126.437 117.434,113.535 C124.5,106 134.067,101.855 144.368,101.855 L179.586,101.855 L179.586,337.789 L118.645,337.789 C108.672,337.789 100.559,345.902 100.559,355.875 L100.559,366.414 L90.227,366.414 C80.082,366.414 71.829,374.668 71.829,384.812 L71.829,403.68 C71.829,406.949 74.477,409.602 77.747,409.602 L319.891,409.602 C323.161,409.602 325.809,406.949 325.809,403.68 L325.809,384.812 C325.809,374.668 317.555,366.414 307.411,366.414 L297.082,366.414 L297.082,355.875 C297.082,345.902 288.965,337.785 278.993,337.785 L218.051,337.785 L218.051,166.656 C218.051,163.387 215.403,160.734 212.133,160.734 C208.864,160.734 206.211,163.387 206.211,166.656 L206.211,337.785 L191.426,337.785 L191.426,101.855 L206.211,101.855 L206.211,129.203 C206.211,132.473 208.864,135.121 212.133,135.121 C215.403,135.121 218.051,132.473 218.051,129.203 L218.051,101.855 L255.614,101.855 C264.082,101.855 272.375,105.422 278.364,111.648 C292.141,125.957 310.649,133.836 330.481,133.836 L332.364,133.836 L286.411,236.027 C286.403,236.039 286.399,236.055 286.391,236.066 C286.336,236.195 286.286,236.328 286.239,236.461 C286.219,236.516 286.196,236.57 286.18,236.629 C286.141,236.742 286.114,236.855 286.082,236.973 C286.063,237.051 286.04,237.133 286.02,237.211 C286.004,237.297 285.993,237.387 285.977,237.473 C285.958,237.586 285.938,237.695 285.926,237.809 C285.918,237.871 285.915,237.937 285.911,238.004 C285.899,238.141 285.891,238.273 285.891,238.406 C285.891,238.422 285.887,238.437 285.887,238.453 L285.887,244.266 C285.887,273.812 309.926,297.848 339.469,297.848 L344.055,297.848 C373.602,297.848 397.641,273.812 397.641,244.266 L397.641,238.453 C397.637,238.437 397.637,238.422 397.637,238.406 Z M198.821,11.84 C208.899,11.84 217.102,20.039 217.102,30.121 C217.102,36.594 213.719,42.285 208.633,45.535 C208.411,45.676 208.184,45.812 207.958,45.945 C207.84,46.016 207.723,46.082 207.606,46.148 C207.293,46.32 206.977,46.484 206.657,46.637 C206.543,46.691 206.426,46.738 206.313,46.793 C206.059,46.906 205.801,47.016 205.54,47.121 C205.43,47.164 205.321,47.207 205.211,47.25 C204.864,47.379 204.512,47.5 204.157,47.609 C204.063,47.637 203.965,47.66 203.872,47.687 C203.575,47.773 203.278,47.852 202.977,47.922 C202.875,47.945 202.778,47.969 202.676,47.992 C202.293,48.074 201.915,48.145 201.532,48.203 C201.465,48.211 201.403,48.219 201.34,48.227 C201.008,48.273 200.672,48.309 200.332,48.336 C200.227,48.344 200.122,48.355 200.016,48.359 C199.618,48.387 199.219,48.402 198.821,48.402 C198.418,48.402 198.02,48.387 197.625,48.359 C197.52,48.355 197.411,48.344 197.305,48.336 C196.969,48.309 196.633,48.273 196.301,48.227 C196.239,48.219 196.172,48.211 196.11,48.203 C195.723,48.145 195.344,48.074 194.965,47.992 C194.864,47.969 194.762,47.945 194.661,47.922 C194.36,47.852 194.063,47.773 193.77,47.687 C193.672,47.66 193.575,47.637 193.481,47.605 C193.125,47.5 192.778,47.379 192.43,47.25 C192.317,47.207 192.204,47.16 192.09,47.113 C191.836,47.012 191.582,46.906 191.332,46.793 C191.215,46.738 191.094,46.687 190.981,46.633 C190.661,46.48 190.348,46.32 190.036,46.152 C189.915,46.082 189.793,46.012 189.672,45.941 C189.45,45.812 189.231,45.68 189.016,45.543 C183.922,42.293 180.536,36.598 180.536,30.121 C180.536,20.039 188.739,11.84 198.821,11.84 Z M206.211,59.328 L206.211,66.449 L191.426,66.449 L191.426,59.328 C191.524,59.352 191.622,59.367 191.719,59.391 C192.168,59.5 192.618,59.598 193.071,59.687 C193.219,59.715 193.372,59.742 193.52,59.766 C193.977,59.848 194.438,59.922 194.903,59.98 C195.012,59.996 195.118,60.008 195.223,60.023 C196.403,60.164 197.602,60.242 198.821,60.242 C199.446,60.242 200.071,60.219 200.688,60.18 C200.692,60.18 200.696,60.18 200.696,60.18 C201.274,60.145 201.844,60.09 202.407,60.023 C202.52,60.008 202.633,59.992 202.747,59.98 C203.204,59.918 203.661,59.848 204.11,59.77 C204.266,59.742 204.418,59.715 204.571,59.687 C205.024,59.598 205.477,59.496 205.922,59.391 C206.02,59.367 206.118,59.352 206.211,59.328 Z M58.168,286.012 L53.582,286.012 C30.602,286.012 11.899,267.344 11.84,244.375 L99.911,244.375 C99.856,267.344 81.149,286.012 58.168,286.012 Z M96.668,232.535 L15.075,232.535 L55.817,141.934 L96.668,232.535 Z M278.993,349.625 C282.438,349.625 285.243,352.43 285.243,355.875 L285.243,366.414 L161.637,366.414 C158.368,366.414 155.715,369.066 155.715,372.336 C155.715,375.605 158.368,378.254 161.637,378.254 L307.411,378.254 C311.028,378.254 313.969,381.199 313.969,384.812 L313.969,397.762 L83.668,397.762 L83.668,384.812 C83.668,381.199 86.61,378.254 90.227,378.254 L123.829,378.254 C127.098,378.254 129.75,375.605 129.75,372.336 C129.75,369.066 127.098,366.414 123.829,366.414 L112.395,366.414 L112.395,355.875 C112.395,352.43 115.2,349.625 118.645,349.625 L278.993,349.625 Z M330.481,121.996 C313.895,121.996 298.418,115.406 286.895,103.437 C278.684,94.906 267.282,90.012 255.614,90.012 L144.368,90.012 C130.762,90.012 118.129,95.488 108.801,105.434 C98.926,115.961 84.559,121.996 69.387,121.996 L14.055,121.996 L14.055,110.27 L67.157,110.27 C80.766,110.27 93.399,104.793 102.727,94.852 C112.606,84.324 126.969,78.289 142.141,78.289 L255.497,78.289 C270.672,78.289 285.036,84.324 294.915,94.852 C304.243,104.793 316.875,110.27 330.481,110.27 L383.586,110.27 L383.586,121.996 L330.481,121.996 Z M341.704,141.934 L382.555,232.535 L300.961,232.535 L341.704,141.934 Z M344.055,286.012 L339.469,286.012 C316.489,286.012 297.786,267.344 297.727,244.375 L385.797,244.375 C385.743,267.344 367.04,286.012 344.055,286.012 Z" id="Fill-1"></path>
        </g>
    </g>
</svg>