<?xml version="1.0" encoding="UTF-8"?>
<svg width="173px" height="45px" viewBox="0 0 173 45" version="1.1" xmlns="http://www.w3.org/2000/svg" xmlns:xlink="http://www.w3.org/1999/xlink">
    <!-- Generator: Sketch 54.1 (76490) - https://sketchapp.com -->
    <title>custodian (1)</title>
    <desc>Created with Sketch.</desc>
    <g id="Symbols" stroke="none" stroke-width="1" fill="none" fill-rule="evenodd">
        <g id="Nav/Main">
            <g id="Nav">
                <g id="custodian-(1)">
                    <g id="Group">
                        <path d="M0,28.2811244 C0,28.2811244 0.58,33.9781618 4.74545455,39.5687126 C8.91090909,45.1592633 14.5,44.9995333 14.5,44.9995333 C14.5,44.9995333 20.6690909,45.10602 24.6236364,39.0362792 C28.5781818,32.9665383 28.9472727,28.2811244 28.9472727,28.2811244 C28.9472727,28.2811244 26.9436364,28.5473411 25.4672727,27.5357176 C24.0436364,26.5773375 22.62,25.1930106 22.62,22.4776003 C22.62,20.1348933 23.8327273,18.8038098 24.6763636,18.058403 C26.3636364,16.4611028 29,16.6740761 29,16.6740761 C29,16.6740761 28.0509091,9.85892855 23.4636364,4.5345945 C19.2454545,-0.310549484 14.5,0.00891055905 14.5,0.00891055905 C14.5,0.00891055905 8.96363636,-0.470279506 4.53454545,5.59946131 C0.632727273,10.9770387 0,16.6740761 0,16.6740761 C0,16.6740761 1.95090909,16.4078594 3.79636364,17.5792129 C5.06181818,18.377863 6.43272727,20.1348933 6.43272727,22.4776003 C6.43272727,25.1397673 4.64,27.4292309 2.21454545,28.1213944 C0.896363636,28.4408544 0,28.2811244 0,28.2811244 Z" id="Path" fill="#164F7E"></path>
                        <path d="M15,4.00305791 C15,4.00305791 18.0182927,3.78857435 20.7073171,6.95220685 C23.1219512,9.79411401 24,12.9577465 24,12.9577465 C24,12.9577465 19.2804878,15.3706865 19.2804878,22.0196769 C19.2804878,28.5078045 24,31.0279864 24,31.0279864 C24,31.0279864 23.2865854,33.6017891 21.3109756,36.3364545 C18.347561,40.465263 15,39.982675 15,39.982675 C15,39.982675 11.2134146,40.2507794 8.3597561,35.8538664 C6.32926829,32.7974757 6,30.9743655 6,30.9743655 C6,30.9743655 10.5,28.7222881 10.6646341,21.966056 C10.6646341,15.2634448 6,12.9041256 6,12.9041256 C6,12.9041256 6.87804878,9.57963045 9.73170732,6.41599795 C12.1463415,3.84219524 15,4.00305791 15,4.00305791 Z" id="Path" fill="#65C9F2"></path>
                        <path d="M15,12 L15,21.5771144 C15,21.5771144 15.6585366,22.3432836 16.7012195,22.6716418 C17.5243902,22.9452736 19.2256098,23 19.2256098,23 C19.2256098,23 19.0609756,18.8955224 21.0914634,16.0497512 C22.6280488,13.8606965 24,13.2587065 24,13.2587065 C24,13.2587065 21.804878,12.5472637 19.5,12.2736318 C17.195122,12.0547264 15,12 15,12 Z" id="Path" fill="#3398DB"></path>
                        <path d="M15,32.2389825 L15,39.9960902 C15,39.9960902 18.5670732,40.2654342 21.3109756,36.3330116 C23.6707317,32.8315393 24,31 24,31 C24,31 22.5731707,31.4848192 19.5,31.9696385 C16.8109756,32.4005889 15,32.2389825 15,32.2389825 Z" id="Path" fill="#3398DB"></path>
                    </g>
                    <text id="Custodian" font-family="RobotoMono-Light, Roboto Mono" font-size="25" font-weight="300" fill="#000000">
                        <tspan x="40" y="32">Custodian</tspan>
                    </text>
                </g>
            </g>
        </g>
    </g>
</svg>