<?xml version="1.0" encoding="UTF-8"?>
<svg width="118px" height="103px" viewBox="0 0 118 103" version="1.1" xmlns="http://www.w3.org/2000/svg" xmlns:xlink="http://www.w3.org/1999/xlink">
    <!-- Generator: Sketch 54.1 (76490) - https://sketchapp.com -->
    <title>Icon/Legal</title>
    <desc>Created with Sketch.</desc>
    <g id="V3" stroke="none" stroke-width="1" fill="none" fill-rule="evenodd">
        <g id="Home" transform="translate(-938.000000, -757.000000)">
            <g id="Software" transform="translate(135.000000, 740.000000)">
                <g transform="translate(803.000000, 17.000000)" id="Icon/Legal">
                    <g>
                        <path d="M95.9124422,56.8218927 C95.9114774,56.7900488 95.9095477,56.7589073 95.9068945,56.7268293 C95.9059296,56.712078 95.9059296,56.6966244 95.904,56.6811707 C95.9001407,56.654478 95.8955578,56.6280195 95.8907337,56.601561 C95.8880804,56.5814244 95.8851859,56.5612878 95.8803618,56.5420878 C95.8757789,56.5228878 95.8699899,56.5027512 95.865407,56.4835512 C95.8579296,56.4570927 95.8511759,56.4304 95.8427337,56.404878 C95.8381508,56.3910634 95.8323618,56.3774829 95.8268141,56.3636683 C95.8154774,56.3334634 95.8041407,56.3032585 95.7908744,56.2739902 C95.7889447,56.270478 95.7882211,56.2667317 95.7862915,56.2632195 L84.6729648,32.3372098 L92.8117387,32.3372098 C94.2268945,32.3372098 95.3781709,31.2193951 95.3781709,29.8456585 L95.3781709,26.5383415 C95.3781709,25.1646049 94.2268945,24.0470244 92.8117387,24.0470244 L79.7140101,24.0470244 C77.2293467,24.0470244 74.9219698,23.0755512 73.2173668,21.3121951 C70.2975678,18.291239 66.072603,16.5587902 61.6274171,16.5587902 L52.5952161,16.5587902 L52.5952161,13.4764878 C54.198995,12.182361 55.222191,10.2314537 55.222191,8.05272195 C55.222191,4.16378537 51.9620503,1 47.9568241,1 C43.950392,1 40.6904925,4.16378537 40.6904925,8.05272195 C40.6904925,10.2314537 41.7136884,12.1814244 43.3172261,13.4764878 L43.3172261,16.5587902 L34.2852663,16.5587902 C29.8398392,16.5587902 25.6160804,18.291239 22.6950754,21.3121951 C20.9907136,23.0755512 18.6840603,24.0470244 16.1986734,24.0470244 L3.10094472,24.0470244 C1.68578894,24.0470244 0.534271357,25.1646049 0.534271357,26.5383415 L0.534271357,29.8456585 C0.534271357,31.2193951 1.68578894,32.3372098 3.10094472,32.3372098 L11.2105327,32.3372098 L0.125427136,56.2648585 C0.124462312,56.2686049 0.122532663,56.2723512 0.121567839,56.2749268 C0.108542714,56.3032585 0.0972060302,56.3325268 0.0868341709,56.3617951 C0.0810452261,56.3774829 0.0745326633,56.392 0.0699497487,56.4067512 C0.0612663317,56.4313366 0.0547537688,56.4570927 0.048241206,56.4826146 C0.0424522613,56.5027512 0.0369045226,56.5228878 0.032080402,56.5430244 C0.0284623116,56.5622244 0.0255678392,56.5814244 0.0217085427,56.5996878 C0.0171256281,56.6270829 0.0123015075,56.654478 0.00964824121,56.6821073 C0.00771859296,56.6966244 0.00675376884,56.7113756 0.00578894472,56.7258927 C0.00289447236,56.7579707 0.000964824121,56.7900488 0.000964824121,56.8218927 C0.000964824121,56.825639 0,56.8291512 0,56.8328976 L0,58.1939902 C0,65.112078 5.79859296,70.7400195 12.9243015,70.7400195 L14.0304724,70.7400195 C21.1573869,70.7400195 26.9547739,65.112078 26.9547739,58.1939902 L26.9547739,56.8328976 C26.9547739,56.8291512 26.9547739,56.825639 26.9547739,56.8209561 C26.9540503,56.7900488 26.9521206,56.7589073 26.9492261,56.7287024 C26.9482613,56.712078 26.9482613,56.6966244 26.9463317,56.6811707 C26.9436784,56.654478 26.9388543,56.6289561 26.9342714,56.6024976 C26.9304121,56.582361 26.9275176,56.5612878 26.9229347,56.5411512 C26.9181106,56.5219512 26.9125628,56.5036878 26.9077387,56.4844878 C26.9002613,56.4570927 26.8937487,56.4304 26.8850653,56.404878 C26.8804824,56.3910634 26.8739698,56.3765463 26.8691457,56.3627317 C26.857809,56.3325268 26.8464724,56.3032585 26.8334472,56.2739902 C26.8315176,56.270478 26.8305528,56.2667317 26.8286231,56.2632195 L15.7152965,32.3372098 L16.7365628,32.3372098 C21.1819899,32.3372098 25.4059899,30.604761 28.3257889,27.5838049 C30.0301508,25.8195122 32.3377688,24.8489756 34.8224322,24.8489756 L43.3172261,24.8489756 L43.3172261,80.0920585 L28.6178894,80.0920585 C26.2123417,80.0920585 24.2554372,81.9916878 24.2554372,84.3268293 L24.2554372,86.7944976 L21.7632965,86.7944976 C19.3162613,86.7944976 17.3255879,88.7271415 17.3255879,91.102322 L17.3255879,95.5201951 C17.3255879,96.2856195 17.9643015,96.9068098 18.7530452,96.9068098 L77.1596382,96.9068098 C77.9483819,96.9068098 78.5870955,96.2856195 78.5870955,95.5201951 L78.5870955,91.102322 C78.5870955,88.7271415 76.5961809,86.7944976 74.1493869,86.7944976 L71.6579698,86.7944976 L71.6579698,84.3268293 C71.6579698,81.9916878 69.7001005,80.091122 67.294794,80.091122 L52.5952161,80.091122 L52.5952161,40.0218927 C52.5952161,39.2564683 51.9565025,38.635278 51.1677588,38.635278 C50.3792563,38.635278 49.7393367,39.2564683 49.7393367,40.0218927 L49.7393367,80.091122 L46.1731055,80.091122 L46.1731055,24.8489756 L49.7393367,24.8489756 L49.7393367,31.2524098 C49.7393367,32.0180683 50.3792563,32.6380878 51.1677588,32.6380878 C51.9565025,32.6380878 52.5952161,32.0180683 52.5952161,31.2524098 L52.5952161,24.8489756 L61.6556382,24.8489756 C63.6981709,24.8489756 65.6984925,25.6841756 67.1430754,27.1419707 C70.4661709,30.4923707 74.9304121,32.3372098 79.7140101,32.3372098 L80.168201,32.3372098 L69.0840603,56.2648585 C69.0821307,56.2676683 69.0811658,56.2714146 69.0792362,56.2739902 C69.0659698,56.3041951 69.0539095,56.3353366 69.0425729,56.366478 C69.0377487,56.3793561 69.032201,56.392 69.0283417,56.4058146 C69.0189347,56.4322732 69.0124221,56.4587317 69.0047035,56.486361 C69.0001206,56.5046244 68.9945729,56.5238244 68.9897487,56.5420878 C68.9858894,56.5622244 68.9832362,56.5832976 68.9793769,56.6034341 C68.974794,56.6298927 68.9699698,56.6554146 68.9670754,56.6821073 C68.9651457,56.6966244 68.9644221,56.712078 68.9634573,56.7277659 C68.9605628,56.7598439 68.9586332,56.7907512 68.9586332,56.8218927 C68.9586332,56.825639 68.9576683,56.8291512 68.9576683,56.8328976 L68.9576683,58.1939902 C68.9576683,65.112078 74.7560201,70.7400195 81.8819698,70.7400195 L82.9881407,70.7400195 C90.1150553,70.7400195 95.913407,65.112078 95.913407,58.1939902 L95.913407,56.8328976 C95.9124422,56.8291512 95.9124422,56.825639 95.9124422,56.8218927 Z M47.9568241,3.77229268 C50.3876985,3.77229268 52.3663116,5.69205854 52.3663116,8.05272195 C52.3663116,9.56835122 51.5503116,10.900878 50.3235377,11.6618537 C50.2699899,11.6948683 50.2152362,11.7267122 50.1607236,11.7578537 C50.1322613,11.774478 50.1040402,11.7899317 50.0758191,11.8053854 C50.0003216,11.8456585 49.9241005,11.8840585 49.8469146,11.9198829 C49.8194171,11.9325268 49.791196,11.9435317 49.7639397,11.9564098 C49.7026734,11.9828683 49.6404422,12.0086244 49.5774874,12.0332098 C49.5509548,12.043278 49.5246633,12.0533463 49.4981307,12.0634146 C49.4144322,12.0936195 49.3295276,12.1219512 49.2438995,12.1474732 C49.2212261,12.1540293 49.1975879,12.1594146 49.1751558,12.1657366 C49.1035176,12.1858732 49.0318794,12.2043707 48.9592764,12.220761 C48.9346734,12.2261463 48.9112764,12.2317659 48.8866734,12.2371512 C48.7942915,12.2563512 48.7031156,12.2729756 48.6107337,12.2865561 C48.5945729,12.2884293 48.5796181,12.2903024 48.5644221,12.2921756 C48.4843417,12.3029463 48.4032965,12.3113756 48.3212864,12.3176976 C48.2959598,12.3195707 48.2706332,12.3221463 48.2450653,12.3230829 C48.1490653,12.329639 48.0528241,12.3331512 47.9568241,12.3331512 C47.8596181,12.3331512 47.7636181,12.329639 47.6683417,12.3230829 C47.6430151,12.3221463 47.6167236,12.3195707 47.5911558,12.3176976 C47.5101106,12.3113756 47.4290653,12.3029463 47.3489849,12.2921756 C47.3340302,12.2903024 47.3178693,12.2884293 47.3029146,12.2865561 C47.2095678,12.2729756 47.1181508,12.2563512 47.0267337,12.2371512 C47.0023719,12.2317659 46.9777688,12.2261463 46.953407,12.220761 C46.880804,12.2043707 46.8091658,12.1858732 46.7384925,12.1657366 C46.7148543,12.1594146 46.6914573,12.1540293 46.6687839,12.1465366 C46.5829146,12.1219512 46.4992161,12.0936195 46.4152764,12.0634146 C46.3880201,12.0533463 46.3607638,12.0423415 46.3332663,12.0313366 C46.272,12.0076878 46.2107337,11.9828683 46.1504322,11.9564098 C46.1222111,11.9435317 46.0930251,11.9315902 46.0657688,11.9189463 C45.9885829,11.883122 45.9130854,11.8456585 45.8378291,11.806322 C45.8086432,11.7899317 45.7792161,11.7735415 45.7500302,11.7569171 C45.6964824,11.7267122 45.6436583,11.6958049 45.591799,11.6637268 C44.3630955,10.9027512 43.5463719,9.5692878 43.5463719,8.05272195 C43.5463719,5.69205854 45.5249849,3.77229268 47.9568241,3.77229268 Z M49.7393367,14.8914341 L49.7393367,16.5587902 L46.1731055,16.5587902 L46.1731055,14.8914341 C46.1967437,14.8970537 46.2203819,14.9005659 46.2437789,14.9061854 C46.3520804,14.9317073 46.4606231,14.9546537 46.5698894,14.9754927 C46.6055879,14.9820488 46.6424925,14.9883707 46.678191,14.9939902 C46.7884221,15.0131902 46.8996181,15.0305171 47.0117789,15.0440976 C47.0380704,15.0478439 47.0636382,15.0506537 47.0889648,15.0541659 C47.3735879,15.0871805 47.662794,15.1054439 47.9568241,15.1054439 C48.1075779,15.1054439 48.2583317,15.1000585 48.4071558,15.0909268 C48.4081206,15.0909268 48.4090854,15.0909268 48.4090854,15.0909268 C48.5485025,15.0827317 48.6859899,15.0698537 48.8217889,15.0541659 C48.8490452,15.0506537 48.8763015,15.0469073 48.903799,15.0440976 C49.0140302,15.0295805 49.1242613,15.0131902 49.2325628,14.9949268 C49.270191,14.9883707 49.3068543,14.9820488 49.3437588,14.9754927 C49.4530251,14.9546537 49.5622915,14.9307707 49.6696281,14.9061854 C49.6932663,14.9005659 49.7169045,14.8970537 49.7393367,14.8914341 Z M14.0304724,67.9686634 L12.9243015,67.9686634 C7.38138693,67.9686634 2.87011055,63.5976195 2.8558794,58.2195122 L24.0991357,58.2195122 C24.0858693,63.5976195 19.5736281,67.9686634 14.0304724,67.9686634 Z M23.3169045,55.4472195 L3.6361809,55.4472195 L13.463397,34.2333268 L23.3169045,55.4472195 Z M67.294794,82.8634146 C68.1257487,82.8634146 68.8023317,83.5201951 68.8023317,84.3268293 L68.8023317,86.7944976 L38.9878191,86.7944976 C38.1993166,86.7944976 37.559397,87.4154537 37.559397,88.1811122 C37.559397,88.9465366 38.1993166,89.5667902 38.9878191,89.5667902 L74.1493869,89.5667902 C75.0218291,89.5667902 75.7312161,90.2563512 75.7312161,91.102322 L75.7312161,94.1345171 L20.1812261,94.1345171 L20.1812261,91.102322 C20.1812261,90.2563512 20.8908543,89.5667902 21.7632965,89.5667902 L29.8683015,89.5667902 C30.656804,89.5667902 31.2964824,88.9465366 31.2964824,88.1811122 C31.2964824,87.4154537 30.656804,86.7944976 29.8683015,86.7944976 L27.1103518,86.7944976 L27.1103518,84.3268293 C27.1103518,83.5201951 27.7869347,82.8634146 28.6178894,82.8634146 L67.294794,82.8634146 Z M79.7140101,29.5649171 C75.7133668,29.5649171 71.9802211,28.0218927 69.200804,25.2193951 C67.2202613,23.2218927 64.4700302,22.0759805 61.6556382,22.0759805 L34.8224322,22.0759805 C31.5405829,22.0759805 28.4934271,23.3581659 26.2434573,25.6869854 C23.8615477,28.1518439 20.3961407,29.5649171 16.7365628,29.5649171 L3.39015075,29.5649171 L3.39015075,26.8193171 L16.1986734,26.8193171 C19.4812462,26.8193171 22.528402,25.5368976 24.7783719,23.2092488 C27.1612462,20.7441561 30.6256884,19.3310829 34.2852663,19.3310829 L61.6274171,19.3310829 C65.2877186,19.3310829 68.752402,20.7441561 71.1352764,23.2092488 C73.3852462,25.5368976 76.4321608,26.8193171 79.7140101,26.8193171 L92.5232563,26.8193171 L92.5232563,29.5649171 L79.7140101,29.5649171 Z M82.4210653,34.2333268 L92.2745729,55.4472195 L72.593608,55.4472195 L82.4210653,34.2333268 Z M82.9881407,67.9686634 L81.8819698,67.9686634 C76.3390553,67.9686634 71.8277789,63.5976195 71.8135477,58.2195122 L93.0565628,58.2195122 C93.0435377,63.5976195 88.5322613,67.9686634 82.9881407,67.9686634 Z" id="Fill-1" fill="#65C9F2"></path>
                        <path d="M72,0.926184258 L110.021518,0.926184258 C114.137282,0.926184258 117.473768,4.26267022 117.473768,8.37843424 C117.473768,10.6269964 116.458497,12.755346 114.710928,14.1702785 C110.532471,17.5533273 107.24281,21.5826036 104.841912,26.2580645 C102.321788,31.1657044 104.357178,49.3082772 110.948081,80.685783 L110.948079,80.6857835 C112.531478,88.2239192 107.72806,95.6251945 100.198537,97.2490549 L74.951462,102.693985 C67.3932505,104.324032 59.944695,99.5183056 58.3146475,91.9600941 C58.1054752,90.9902026 58,90.0008229 58,89.0086321 L58,14.9261843 C58,7.19419776 64.2680135,0.926184258 72,0.926184258 Z" id="Rectangle" fill-opacity="0.27" fill="#FFAB00" fill-rule="nonzero"></path>
                    </g>
                </g>
            </g>
        </g>
    </g>
</svg>