<?xml version="1.0" encoding="UTF-8"?>
<svg width="68px" height="72px" viewBox="0 0 68 72" version="1.1" xmlns="http://www.w3.org/2000/svg" xmlns:xlink="http://www.w3.org/1999/xlink">
    <!-- Generator: Sketch 54.1 (76490) - https://sketchapp.com -->
    <title>Group</title>
    <desc>Created with Sketch.</desc>
    <g id="Symbols" stroke="none" stroke-width="1" fill="none" fill-rule="evenodd">
        <g id="Widget/Benefits" transform="translate(0.000000, -235.000000)" fill="#1B5472">
            <g id="Benefits">
                <g id="Benefit" transform="translate(0.000000, 235.000000)">
                    <g id="Group">
                        <path d="M51.9087042,69.1533834 L51.9087042,23.8261374 C51.9087042,23.2859919 52.3417011,22.8466166 52.8740053,22.8466166 L59.7503373,22.8466166 C60.2826414,22.8466166 60.7156383,23.2859919 60.7156383,23.8261374 L60.7156383,69.1533834 L51.9087042,69.1533834 Z M29.6794294,69.1533834 L29.6794294,44.3629108 C29.6794294,43.8227653 30.1124262,43.38339 30.6447304,43.38339 L37.5210624,43.38339 C38.0532263,43.38339 38.4863634,43.8227653 38.4863634,44.3629108 L38.4863634,69.1533834 L29.6794294,69.1533834 Z M7.4501545,69.1533834 L7.4501545,56.314573 C7.4501545,55.7744275 7.88315133,55.3350523 8.41545551,55.3350523 L15.2917875,55.3350523 C15.8240917,55.3350523 16.2570885,55.7744275 16.2570885,56.314573 L16.2570885,69.1533834 L7.4501545,69.1533834 Z M66.5973539,69.1533834 L63.5209304,69.1533834 L63.5209304,23.8261374 C63.5209304,21.7163675 61.8293392,20 59.7503373,20 L52.8740053,20 C50.794863,20 49.1034121,21.7165098 49.1034121,23.8261374 L49.1034121,69.1533834 L41.2917958,69.1533834 L41.2917958,44.3629108 C41.2917958,42.2531409 39.6003449,40.5367734 37.5212026,40.5367734 L30.6448706,40.5367734 C28.5657284,40.5367734 26.8742775,42.2532832 26.8742775,44.3629108 L26.8742775,69.1533834 L19.0626611,69.1533834 L19.0626611,56.314573 C19.0626611,54.2048031 17.37107,52.4884356 15.292068,52.4884356 L8.41559577,52.4884356 C6.33645353,52.4884356 4.64500266,54.2049454 4.64500266,56.314573 L4.64500266,69.1533834 L1.40264605,69.1533834 C0.627964637,69.1533834 0,69.7905985 0,70.5766917 C0,71.3627849 0.627964637,72 1.40264605,72 L66.5973539,72 C67.3720354,72 68,71.3627849 68,70.5766917 C68,69.7905985 67.3720354,69.1533834 66.5973539,69.1533834 L66.5973539,69.1533834 Z" id="Fill-1"></path>
                        <path d="M13.3891578,39 C13.7446521,39 14.1002854,38.8632847 14.3714558,38.589714 L38.3625323,14.3985303 L43.5414419,19.6206064 C44.0839215,20.1676077 44.9635582,20.1676077 45.5061768,19.6206064 L60.221615,4.78265414 L60.221615,9.51866259 C60.221615,10.2923087 60.8435565,10.9194341 61.6108075,10.9194341 C62.3780585,10.9194341 63,10.2923087 63,9.51866259 L63,1.54084865 C63,1.51801608 62.9976384,1.49574381 62.9966659,1.47305131 C63.0161146,1.09078077 62.8827522,0.702066677 62.5932444,0.410145896 C62.3037367,0.118225115 61.9182358,-0.0163890266 61.5391252,0.0033618516 C61.5167592,0.00238131155 61.494671,0 61.4718883,0 L53.0672737,0 C52.3000227,0 51.6780812,0.627125401 51.6780812,1.4007715 C51.6780812,2.1744176 52.3000227,2.801543 53.0672737,2.801543 L58.2568801,2.801543 L44.5237399,16.6492899 L39.3448303,11.4272138 C39.0843567,11.1645691 38.7309461,11.0169278 38.3625323,11.0169278 C37.9941184,11.0169278 37.6407078,11.1645691 37.3802342,11.4272138 L12.4068598,36.608883 C11.8643801,37.1558843 11.8643801,38.0428528 12.4068598,38.5899942 C12.678169,38.8632847 13.0336634,39 13.3891578,39" id="Fill-3"></path>
                        <path d="M8.5,41 C9.32845,41 10,41.67155 10,42.5 C10,43.32845 9.32845,44 8.5,44 C7.67155,44 7,43.32845 7,42.5 C7,41.67155 7.67155,41 8.5,41" id="Fill-5"></path>
                    </g>
                </g>
            </g>
        </g>
    </g>
</svg>