<?xml version="1.0" encoding="UTF-8"?>
<svg width="116px" height="130px" viewBox="0 0 116 130" version="1.1" xmlns="http://www.w3.org/2000/svg" xmlns:xlink="http://www.w3.org/1999/xlink">
    <!-- Generator: Sketch 54.1 (76490) - https://sketchapp.com -->
    <title>Icon</title>
    <desc>Created with Sketch.</desc>
    <g id="V3" stroke="none" stroke-width="1" fill="none" fill-rule="evenodd">
        <g id="Home" transform="translate(-537.000000, -740.000000)">
            <g id="Software" transform="translate(135.000000, 740.000000)">
                <g transform="translate(402.000000, 0.000000)" id="Icon">
                    <g>
                        <path d="M76.0890656,3.57383064 L110.072718,29.5319137 C116.126522,34.1560528 117.371989,42.7718921 112.875535,48.9211288 C108.513642,54.8863449 104.388463,63.6186522 100.5,75.1180508 C95.3279937,90.4132862 91.1342327,104.976188 87.9187171,118.806755 L87.9187169,118.806755 C86.1677803,126.337879 78.6431831,131.023647 71.1120587,129.27271 C70.9541003,129.235986 70.7967919,129.19652 70.6402048,129.15433 L50.7805867,123.80345 C43.9731247,121.96928 39.5916165,115.359176 40.5537775,108.374911 L53.7218283,12.7888734 C54.7770304,5.12922825 61.8418101,-0.224730605 69.5014552,0.830471583 C71.8974291,1.16054391 74.1670271,2.10570035 76.0890656,3.57383064 Z" id="Rectangle" fill-opacity="0.27" fill="#FFAB00" fill-rule="nonzero"></path>
                        <g id="Group" transform="translate(0.000000, 33.000000)" fill="#65C9F2">
                            <path d="M43,58.6271812 L43,51.84771 C43,49.1746495 40.7852425,47 38.0628816,47 C35.3405208,47 33.1257632,49.1746495 33.1257632,51.84771 L33.1257632,57.9683918 C33.1257632,65.3442543 30.3582354,72.4259177 25.3331464,77.907922 L18.4050046,85.467111 C17.8222981,86.1016631 17.8745552,87.0806937 18.521861,87.6515586 C19.1681165,88.2237126 20.1652038,88.1724018 20.7468599,87.5368183 L27.6760522,79.9778871 C33.2223996,73.9265651 36.2769478,66.1097908 36.2769478,57.9683918 L36.2769478,51.84771 C36.2769478,50.880798 37.0781364,50.0941184 38.0628816,50.0941184 C39.0476268,50.0941184 39.8488155,50.880798 39.8488155,51.84771 L39.8488155,58.6271812 C39.8488155,67.7030039 36.4237405,76.4013441 30.2054029,83.1171281 L23.4518893,90.4115121 C22.8660315,91.0440015 22.9143497,92.0230321 23.5574539,92.5969911 C23.8599677,92.8669529 24.238635,93 24.6170398,93 C25.0458634,93 25.4725864,92.8287921 25.7835032,92.4933381 L32.5370169,85.1981805 C39.283703,77.9110161 43,68.4744707 43,58.6271812 Z" id="Fill-1"></path>
                            <path d="M50,52.4683297 C50,46.1449658 44.7266744,41 38.2452865,41 C31.7631044,41 26.4897788,46.1449658 26.4897788,52.4683297 L26.4897788,58.6000295 C26.4897788,64.3525342 24.3180201,69.8759202 20.3734836,74.1519401 L15.4075348,79.5350652 C14.8211096,80.1717928 14.8737952,81.1515526 15.5253493,81.7247366 C16.1779624,82.2968874 17.1821658,82.2452259 17.7693852,81.6087566 L22.7355988,76.2256315 C27.2054028,71.379269 29.6678589,65.1194487 29.6678589,58.6000295 L29.6678589,52.4683297 C29.6678589,47.8531523 33.5149668,44.0996882 38.2452865,44.0996882 C42.9756062,44.0996882 46.8229789,47.8531523 46.8229789,52.4683297 L46.8229789,59.2600048 C46.8229789,70.000941 42.7450075,80.2939722 35.3393712,88.241831 L29.5934637,94.4078858 C29.0038615,95.0415137 29.0515168,96.0212735 29.7009529,96.5975572 C30.0048879,96.8680049 30.387719,97 30.7681672,97 C31.2005069,97 31.6307285,96.8295171 31.9439298,96.4937176 L37.6901021,90.3274046 C45.6284189,81.807395 50,70.7737966 50,59.2600048 L50,52.4683297 Z" id="Fill-2"></path>
                            <path d="M57,51.4852799 C57,41.2924965 48.74397,33 38.5960098,33 C28.4483124,33 20.1920195,41.2924965 20.1920195,51.4852799 L20.1920195,57.7539023 C20.1920195,61.9616802 18.6484506,66.0022983 15.8457858,69.1307999 L11.4049029,74.0864393 C10.8217593,74.7363289 10.8751309,75.737967 11.5221626,76.3239504 C12.170246,76.9096697 13.1672164,76.8560624 13.7495713,76.2061728 L18.1904541,71.2507974 C21.5157922,67.5392173 23.3469893,62.7467764 23.3469893,57.7539023 L23.3469893,51.4852799 C23.3469893,43.0401477 30.1880154,36.1689051 38.5960098,36.1689051 C47.0042671,36.1689051 53.8450302,43.0401477 53.8450302,51.4852799 L53.8450302,58.428615 C53.8450302,71.0949929 49.1733088,83.2332199 40.6901209,92.6047286 L39.1105327,94.3500031 C38.5252859,94.9969879 38.5723475,95.9994182 39.2175388,96.5885705 C39.5193642,96.8640012 39.8992752,97 40.2773457,97 C40.7066845,97 41.13392,96.8257102 41.4449474,96.4813559 L43.0245356,94.7368736 C52.0364438,84.7793815 57,71.8851066 57,58.428615 L57,51.4852799 Z" id="Fill-3"></path>
                            <path d="M14,52.4506329 C14,53.3061418 14.695956,54 15.5540514,54 C16.4129238,54 17.1081027,53.3061418 17.1081027,52.4506329 C17.1081027,47.2336556 19.0081895,42.193048 22.4581836,38.2592049 C25.8758015,34.3615138 30.5674826,31.8125467 35.6665841,31.0822783 C36.5163912,30.9611694 37.1064127,30.1753821 36.9839017,29.3291694 C36.8613906,28.4819238 36.0732276,27.8947137 35.2244565,28.0158226 C29.3897707,28.8509314 24.0254444,31.765291 20.1180412,36.2197214 C16.1730818,40.7183088 14,46.4832455 14,52.4506329 Z" id="Fill-4"></path>
                            <path d="M16,57.6365496 C16,56.7320832 15.3032706,56 14.4424827,56 C13.5824735,56 12.8849654,56.7320832 12.8849654,57.6365496 C12.8849654,60.2555745 11.9673281,62.7690419 10.3002654,64.7154449 L6.40024204,69.269417 C5.82422022,69.9406751 5.87613746,70.9752472 6.51601749,71.580225 C6.81402247,71.8617116 7.18626911,72 7.55721782,72 C7.9831988,72 8.40814144,71.8177975 8.71523194,71.4588476 L12.6152553,66.9051483 C14.7983754,64.3564951 16,61.0653938 16,57.6365496 Z" id="Fill-5"></path>
                            <path d="M59.9026795,72.0515792 C59.1174807,71.8308805 58.3151431,72.3385937 58.1094783,73.1892919 C57.5671598,75.4336815 56.8921385,77.6656038 56.1040016,79.8219261 C55.8045634,80.6394665 56.1737807,81.5647035 56.9283747,81.888059 C57.1053933,81.963659 57.2890226,82 57.4687345,82 C58.0541447,82 58.6067464,81.619613 58.8354261,80.9949188 C59.667634,78.7184323 60.3791363,76.3642239 60.9520597,73.9943649 C61.1567451,73.1447278 60.6871438,72.2744001 59.9026795,72.0515792 Z" id="Fill-6"></path>
                            <path d="M54.6372983,33.3973423 C53.9879548,32.8249753 52.9887824,32.8773605 52.4052952,33.5132092 C51.821808,34.1493159 51.8744931,35.1281203 52.5235732,35.6997132 C57.1727675,39.7942793 59.8388956,45.6418162 59.8388956,51.7435377 L59.8388956,58.5285902 C59.8388956,61.1032096 59.657659,63.6976992 59.3007176,66.2410939 C59.1813859,67.0877739 59.7854203,67.8689078 60.6507726,67.9858069 C60.7237414,67.9958711 60.79592,68 60.8678351,68 C61.6446765,68 62.3229968,67.4384713 62.4320549,66.6632727 C62.8084898,63.9810441 63,61.2433337 63,58.5275579 L63,51.7435377 C63,44.7649437 59.9521685,38.0776943 54.6372983,33.3973423 Z" id="Fill-7"></path>
                            <path d="M47.7167762,32.8230314 C47.9381504,32.9440512 48.17203,33 48.4027167,33 C48.9992562,33 49.5710506,32.616264 49.8443093,31.9594733 C50.2237318,31.0509129 49.885817,29.961735 49.0897216,29.5281315 C46.789772,28.2774926 44.3450779,27.4327869 41.8237543,27.0183398 C40.9494329,26.8769473 40.1418963,27.568402 40.016309,28.5648386 C39.89152,29.5624914 40.4963077,30.4865594 41.3695648,30.6303844 C43.5718649,30.9925315 45.7076463,31.7302047 47.7167762,32.8230314 Z" id="Fill-8"></path>
                            <path d="M38.2531174,20 C37.6647999,20 37.0704577,20.0161576 36.4850215,20.047691 C35.6185236,20.0956427 34.9545053,20.8336808 35.0024404,21.6949859 C35.0506373,22.5570729 35.7903563,23.2218805 36.657902,23.1700198 C37.1859733,23.1413531 37.7221648,23.1272803 38.2531174,23.1272803 C54.024795,23.1272803 66.8567184,35.8928385 66.8567184,51.5852705 L66.8567184,58.4363598 C66.8567184,59.3005316 67.5608135,60 68.4283592,60 C69.2961669,60 70,59.3005316 70,58.4363598 L70,51.5852705 C70,34.1694465 55.7580529,20 38.2531174,20 Z" id="Fill-9"></path>
                            <path d="M21.5531873,28 C21.8592271,28 22.16863,27.9130489 22.4384521,27.7339446 C25.0202589,26.0144935 27.8568833,24.7302932 30.8683876,23.9175114 C31.6938931,23.6940645 32.1737781,22.8733555 31.9414672,22.0828687 C31.7091563,21.2931252 30.8510548,20.8335975 30.026584,21.0560535 C26.6816179,21.9590068 23.5327449,23.3844097 20.6658529,25.2926263 C19.9624528,25.7618152 19.7886077,26.6880546 20.2778057,27.361368 C20.5789303,27.777544 21.0619196,28 21.5531873,28 Z" id="Fill-10"></path>
                            <path d="M9.54845607,58.0233893 L9.54845607,51.9039352 C9.54845607,44.7089751 12.3937038,37.855331 17.5598339,32.6077277 C18.1716833,31.9864502 18.1423425,31.007616 17.4925385,30.4216559 C16.8438113,29.8356959 15.8217294,29.8637952 15.2096108,30.4850727 C9.47577708,36.3096133 6.31827887,43.9165241 6.31827887,51.9039352 L6.31827887,58.0233893 C6.31827887,58.8653362 5.99445361,59.6740281 5.40656136,60.2991724 L3.41515711,62.4179606 C2.81784351,63.0534166 2.87141062,64.0312196 3.53494285,64.6022278 C3.84315559,64.8690419 4.22996931,65 4.61489876,65 C5.05662549,65 5.49700632,64.8267641 5.81571713,64.4875105 L7.80712138,62.3687224 C8.93014632,61.1743745 9.54845607,59.6307191 9.54845607,58.0233893 Z" id="Fill-11"></path>
                            <path d="M74.9169501,39.8418464 C73.185663,34.5121502 70.4351207,29.6965078 66.7402879,25.5292926 C66.1505666,24.8636938 65.1528801,24.8200838 64.5105521,25.4311699 C63.8684871,26.0422561 63.8264017,27.0771777 64.416123,27.7427764 C67.8097825,31.5703782 70.3364832,35.9918946 71.9259952,40.8852175 C72.1469434,41.5688054 72.762442,42 73.4208151,42 C73.5873153,42 73.7580241,41.9724711 73.9245244,41.9138701 C74.7504499,41.6252259 75.1955027,40.6979667 74.9169501,39.8418464 Z" id="Fill-13"></path>
                            <path d="M50.0427843,16.0805426 C49.2363498,15.8148222 48.3597346,16.2281101 48.0836393,17.0035194 C47.8075441,17.77794 48.2373683,18.6218186 49.0435458,18.8863031 C52.4448642,20.0055423 55.6382115,21.6265604 58.5351548,23.7053593 C58.8115071,23.9043406 59.1356747,24 59.4559863,24 C59.9261709,24 60.3909569,23.7943448 60.6932734,23.4033032 C61.2033041,22.7475299 61.0626858,21.8178792 60.3799028,21.328212 C57.2258876,19.0650155 53.7471905,17.2989017 50.0427843,16.0805426 Z" id="Fill-14"></path>
                            <path d="M13.9080762,26.855365 C20.4778289,20.5740729 29.0964969,17.1146903 38.175917,17.1146903 C39.8619574,17.1146903 41.5571087,17.2364228 43.2145148,17.4746966 C44.0696395,17.5985055 44.8607275,17.0061952 44.9838551,16.1556252 C45.1067223,15.304017 44.5150333,14.5141835 43.6609498,14.3914127 C41.8559468,14.1318552 40.0103352,14 38.175917,14 C28.2871871,14 18.9005989,17.7666988 11.7461856,24.6073373 C4.6141591,31.4259134 0.442920608,40.5763543 0.00169187266,50.3725743 C-0.0381358539,51.2314502 0.630084891,51.9592495 1.49119678,51.9979235 C1.51462486,52 1.53909418,52 1.56252225,52 C2.39317765,52 3.08378522,51.3479915 3.12231139,50.5124758 C3.52709645,41.5193268 7.35758662,33.1171902 13.9080762,26.855365 Z" id="Fill-15"></path>
                            <path d="M37.7193212,6 C34.1742564,6 30.6416092,6.41801294 27.2204552,7.24301017 C26.3678748,7.44771278 25.8415841,8.3179006 26.0429061,9.18459153 C26.2442282,10.0526274 27.098658,10.5895346 27.9512384,10.3834871 C31.1338178,9.61659203 34.4199645,9.22789918 37.7193212,9.22789918 C49.34316,9.22789918 60.1942075,13.9425149 68.2719247,22.5039795 C68.5826265,22.8340322 68.9984807,23 69.4153917,23 C69.8095813,23 70.2058846,22.8507097 70.5134159,22.550246 C71.1440665,21.9323723 71.1646743,20.9099353 70.5578019,20.2681213 C66.3493255,15.8077027 61.4058386,12.2981693 55.8636696,9.83824111 C50.1244058,7.29115967 44.0189578,6 37.7193212,6 Z" id="Fill-17"></path>
                            <path d="M3.60713431,26.658334 C3.89707075,26.888972 4.24140328,27 4.58283116,27 C5.05311969,27 5.51944734,26.7884031 5.83209282,26.3829094 C10.3467042,20.5257786 16.2911934,15.9309882 23.0225776,13.096287 C23.8303331,12.7556938 24.2140104,11.814101 23.8786558,10.9926545 C23.5435653,10.1725489 22.6161912,9.78260991 21.8086998,10.1232031 C14.574812,13.1695012 8.18802445,18.1070303 3.33673821,24.3986186 C2.79753037,25.0985779 2.91899736,26.1104348 3.60713431,26.658334 Z" id="Fill-18"></path>
                            <path d="M15.5856573,8 C15.8167004,8 16.0519682,7.95067786 16.2735055,7.84583602 C22.9439173,4.69567463 30.1030842,3.0987734 37.5532333,3.0987734 C41.4355492,3.0987734 45.3014941,3.54551323 49.044656,4.42633957 C49.8954226,4.62595223 50.7506781,4.11465462 50.9558444,3.28237573 C51.1599544,2.45009684 50.6371369,1.61394448 49.7861063,1.4132989 C45.8008112,0.475145255 41.6853398,0 37.5532333,0 C29.6225146,0 21.9991491,1.70071014 14.8956966,5.05461588 C14.1075097,5.42698515 13.7774481,6.35300194 14.1582071,7.12356359 C14.4314981,7.6772111 14.9965634,8 15.5856573,8 Z" id="Fill-19"></path>
                            <path d="M55.982919,6.35628345 C57.5904353,7.07099734 59.1810632,7.89212097 60.7103732,8.79703865 C60.9439528,8.93418253 61.1936414,9 61.4391728,9 C61.9983089,9 62.5382182,8.66366405 62.8185657,8.07449624 C63.2212892,7.22524797 62.9310684,6.17303834 62.1708304,5.7221742 C60.5420088,4.75955751 58.8479719,3.88508404 57.1367868,3.12397898 C56.3360166,2.76821672 55.4297588,3.20429368 55.1109577,4.09703368 C54.7924164,4.98948373 55.1831881,6.00081114 55.982919,6.35628345 Z" id="Fill-20"></path>
                        </g>
                    </g>
                </g>
            </g>
        </g>
    </g>
</svg>