<?xml version="1.0" encoding="UTF-8"?>
<svg width="133px" height="131px" viewBox="0 0 133 131" version="1.1" xmlns="http://www.w3.org/2000/svg" xmlns:xlink="http://www.w3.org/1999/xlink">
    <!-- Generator: Sketch 54.1 (76490) - https://sketchapp.com -->
    <title>Icon</title>
    <desc>Created with Sketch.</desc>
    <g id="V3" stroke="none" stroke-width="1" fill="none" fill-rule="evenodd">
        <g id="Home" transform="translate(-135.000000, -742.000000)">
            <g id="Software" transform="translate(135.000000, 740.000000)">
                <g transform="translate(0.000000, 2.000000)" id="Icon">
                    <g>
                        <path d="M70.9998842,-4.15144276e-06 L118.460823,-4.7510221e-07 C126.192809,-3.5392038e-08 132.460822,6.26801339 132.460822,13.9999993 C132.460822,16.5972797 131.738311,19.1433581 130.374088,21.3535075 C115.875512,44.8423445 105.917483,63.8869467 100.5,78.4873142 C96.8363595,88.3609955 99.0982165,97.0502892 107.285571,104.555195 L107.285576,104.55519 C111.373961,108.302792 111.65022,114.655114 107.902618,118.743498 C106.000535,120.818545 103.314855,121.999998 100.499942,121.999998 L70.9998842,121.999995 C63.267898,121.999995 56.999885,115.731981 56.999885,107.999995 L56.9998834,13.9999951 C56.9998834,6.26800855 63.2678969,-4.94760852e-06 70.9998834,-4.94760853e-06 C70.9998837,-4.94760853e-06 70.9998839,-4.94760852e-06 70.9998842,-4.9476085e-06 Z" id="Rectangle" fill-opacity="0.269474638" fill="#FFAB00" fill-rule="nonzero"></path>
                        <g id="Group" transform="translate(0.000000, 24.000000)" fill="#65C9F2">
                            <path d="M47,26 C35.4198125,26 26,35.4198125 26,47 C26,58.5801875 35.4198125,68 47,68 C58.5801875,68 68,58.5801875 68,47 C68,35.4198125 58.5801875,26 47,26 Z M47,29.5 C56.5079688,29.5 64.2512813,37.1245313 64.4785625,46.5778125 L53.5207188,51.5099688 C52.5122813,48.8799375 49.9804688,47 47,47 C44.0339688,47 41.5082813,48.862 40.4895625,51.4732188 L29.535,46.3172813 C29.89725,36.9862813 37.5817188,29.5 47,29.5 Z M50.5,54 C50.5,55.93025 48.93025,57.5 47,57.5 C45.06975,57.5 43.5,55.93025 43.5,54 C43.5,52.06975 45.06975,50.5 47,50.5 C48.93025,50.5 50.5,52.06975 50.5,54 Z M47,64.5 C38.4884375,64.5 31.3832188,58.3870313 29.8255,50.3230313 L40.1170312,55.16725 C40.6776875,58.4714688 43.54025,61 47,61 C50.4547187,61 53.3120312,58.48 53.8812187,55.1843125 L64.1325,50.57175 C62.4774375,58.5134688 55.4245,64.5 47,64.5 Z" id="Fill-1"></path>
                            <path d="M77.155629,62.6346935 C76.480623,61.9596875 75.3903448,61.9596875 74.7153387,62.6346935 L72.483871,64.8661613 L69.5463327,61.9284073 C72.4873226,57.5381714 74.2096774,52.2662641 74.2096774,46.5967742 C74.2096774,46.1670484 74.1650222,45.7489718 74.1456069,45.3250706 L85.7307298,40.111625 C86.8650161,40.9272843 88.241994,41.4193548 89.7419355,41.4193548 C93.5490645,41.4193548 96.6451613,38.3232581 96.6451613,34.516129 C96.6451613,32.1187681 95.414877,30.0070282 93.5542419,28.7689778 L99.5617742,13.7533831 C99.7412581,13.7667581 99.9138387,13.8064516 100.096774,13.8064516 C103.903903,13.8064516 107,10.7103548 107,6.90322581 C107,3.09609677 103.903903,0 100.096774,0 C96.2896452,0 93.1935484,3.09609677 93.1935484,6.90322581 C93.1935484,9.30058669 94.4238327,11.4123266 96.2844677,12.650377 L90.2769355,27.6659718 C90.0974516,27.6525968 89.924871,27.6129032 89.7419355,27.6129032 C88.5099254,27.6129032 87.3689516,27.9634577 86.3662581,28.5314637 L76.6255907,17.3978548 C77.2695323,16.3487802 77.6612903,15.1269093 77.6612903,13.8064516 C77.6612903,9.99932258 74.5651935,6.90322581 70.7580645,6.90322581 C68.2537036,6.90322581 66.0778931,8.2581996 64.8661613,10.2579778 L37.9483266,7.09112298 C37.9509153,7.02705242 37.9677419,6.96729637 37.9677419,6.90322581 C37.9677419,3.09609677 34.8716452,0 31.0645161,0 C27.2573871,0 24.1612903,3.09609677 24.1612903,6.90322581 C24.1612903,8.65513508 24.8380222,10.2376996 25.9166512,11.456119 L10.1719032,31.9239677 C9.68652016,31.6620766 9.17417137,31.4513125 8.62903226,31.3097964 L8.62903226,13.5611714 C11.5978508,12.7901673 13.8064516,10.1112843 13.8064516,6.90322581 C13.8064516,3.09609677 10.7103548,0 6.90322581,0 C3.09609677,0 0,3.09609677 0,6.90322581 C0,10.1112843 2.20860081,12.7901673 5.17741935,13.5611714 L5.17741935,31.3097964 C2.20860081,32.0808004 0,34.7596835 0,37.9677419 C0,41.774871 3.09609677,44.8709677 6.90322581,44.8709677 C9.27124798,44.8709677 11.3627097,43.671748 12.6072319,41.8490806 L19.0714556,44.8903831 C19.0352137,45.4575262 18.983871,46.0203548 18.983871,46.5967742 C18.983871,61.8214073 31.3721411,74.2096774 46.5967742,74.2096774 C52.2662641,74.2096774 57.5381714,72.4873226 61.9284073,69.5463327 L64.8661613,72.483871 L62.6346935,74.7153387 C62.3102419,75.0380645 62.1290323,75.4762036 62.1290323,75.9354839 C62.1290323,76.3947641 62.3102419,76.8329032 62.6346935,77.155629 L89.4705524,103.991704 C91.4103589,105.93151 93.9891452,107 96.7310202,107 C102.393823,107 107,102.393823 107,96.7310202 C107,93.9891452 105.93151,91.4103589 103.991704,89.4705524 L77.155629,62.6346935 Z M100.096774,3.4516129 C102.000339,3.4516129 103.548387,4.99966129 103.548387,6.90322581 C103.548387,8.80679032 102.000339,10.3548387 100.096774,10.3548387 C98.1932097,10.3548387 96.6451613,8.80679032 96.6451613,6.90322581 C96.6451613,4.99966129 98.1932097,3.4516129 100.096774,3.4516129 Z M95.9306774,86.2903226 L86.2903226,95.9306774 L71.4725484,81.1129032 L81.1129032,71.4725484 L95.9306774,86.2903226 Z M93.1935484,34.516129 C93.1935484,36.4196935 91.6455,37.9677419 89.7419355,37.9677419 C87.838371,37.9677419 86.2903226,36.4196935 86.2903226,34.516129 C86.2903226,32.6125645 87.838371,31.0645161 89.7419355,31.0645161 C91.6455,31.0645161 93.1935484,32.6125645 93.1935484,34.516129 Z M70.7580645,10.3548387 C72.661629,10.3548387 74.2096774,11.9028871 74.2096774,13.8064516 C74.2096774,15.7100161 72.661629,17.2580645 70.7580645,17.2580645 C68.8545,17.2580645 67.3064516,15.7100161 67.3064516,13.8064516 C67.3064516,11.9028871 68.8545,10.3548387 70.7580645,10.3548387 Z M31.0645161,3.4516129 C32.9680806,3.4516129 34.516129,4.99966129 34.516129,6.90322581 C34.516129,8.80679032 32.9680806,10.3548387 31.0645161,10.3548387 C29.1609516,10.3548387 27.6129032,8.80679032 27.6129032,6.90322581 C27.6129032,4.99966129 29.1609516,3.4516129 31.0645161,3.4516129 Z M3.4516129,6.90322581 C3.4516129,4.99966129 4.99966129,3.4516129 6.90322581,3.4516129 C8.80679032,3.4516129 10.3548387,4.99966129 10.3548387,6.90322581 C10.3548387,8.80679032 8.80679032,10.3548387 6.90322581,10.3548387 C4.99966129,10.3548387 3.4516129,8.80679032 3.4516129,6.90322581 Z M6.90322581,41.4193548 C4.99966129,41.4193548 3.4516129,39.8713065 3.4516129,37.9677419 C3.4516129,36.0641774 4.99966129,34.516129 6.90322581,34.516129 C8.80679032,34.516129 10.3548387,36.0641774 10.3548387,37.9677419 C10.3548387,39.8713065 8.80679032,41.4193548 6.90322581,41.4193548 Z M13.7458327,38.5685383 C13.7635222,38.3679133 13.8064516,38.1733286 13.8064516,37.9677419 C13.8064516,36.6075907 13.3976512,35.3462419 12.7159577,34.2760262 L28.7834315,13.388375 C29.5013669,13.6420685 30.260506,13.8064516 31.0645161,13.8064516 C33.568877,13.8064516 35.7446875,12.4514778 36.9564194,10.4516996 L63.8759798,13.6185544 C63.8716653,13.682625 63.8548387,13.742381 63.8548387,13.8064516 C63.8548387,17.6135806 66.9509355,20.7096774 70.7580645,20.7096774 C71.9900746,20.7096774 73.1310484,20.359123 74.1337419,19.7911169 L83.8761351,30.9247258 C83.2304677,31.9738004 82.8387097,33.1956714 82.8387097,34.516129 C82.8387097,35.5274516 83.0695363,36.4820383 83.4615101,37.3483931 L73.7503972,41.7177036 C71.4380323,28.8136331 60.1547097,18.983871 46.5967742,18.983871 C33.190494,18.983871 21.995619,28.5912198 19.5089476,41.2810746 L13.7458327,38.5685383 Z M22.4354839,46.5967742 C22.4354839,33.2731169 33.2731169,22.4354839 46.5967742,22.4354839 C59.9204315,22.4354839 70.7580645,33.2731169 70.7580645,46.5967742 C70.7580645,59.9204315 59.9204315,70.7580645 46.5967742,70.7580645 C33.2731169,70.7580645 22.4354839,59.9204315 22.4354839,46.5967742 Z M64.6797742,67.4169032 C65.6548548,66.5699637 66.5699637,65.6548548 67.4169032,64.6797742 L70.0435806,67.3064516 L67.3064516,70.0435806 L64.6797742,67.4169032 Z M68.5265968,73.7040161 L75.9354839,66.295129 L78.6726129,69.0322581 L69.0322581,78.6726129 L66.295129,75.9354839 L68.5265968,73.7040161 Z M96.7310202,103.548387 C94.9109415,103.548387 93.1985101,102.838865 91.9125685,101.551198 L88.7306129,98.3709677 L98.3709677,88.7306129 L101.551198,91.9110585 C102.838865,93.1985101 103.548387,94.9109415 103.548387,96.7310202 C103.548387,100.490258 100.490258,103.548387 96.7310202,103.548387 Z" id="Fill-3"></path>
                        </g>
                    </g>
                </g>
            </g>
        </g>
    </g>
</svg>